<?xml version="1.0" standalone="no"?>
<!DOCTYPE svg PUBLIC "-//W3C//DTD SVG 20010904//EN"
 "http://www.w3.org/TR/2001/REC-SVG-20010904/DTD/svg10.dtd">
<svg version="1.0" xmlns="http://www.w3.org/2000/svg"
 width="64.000000pt" height="64.000000pt" viewBox="0 0 64.000000 64.000000"
 preserveAspectRatio="xMidYMid meet">

<g transform="translate(0.000000,64.000000) scale(0.100000,-0.100000)"
fill="#000000" stroke="none">
<path d="M250 624 c-69 -30 -110 -93 -110 -167 0 -37 -5 -48 -25 -61 -21 -14
-25 -25 -25 -61 0 -44 0 -45 -34 -45 -48 0 -57 -17 -54 -97 l3 -68 40 -5 c39
-5 40 -6 43 -50 2 -27 9 -50 19 -57 24 -18 402 -18 426 0 10 7 17 30 19 57 3
44 4 45 43 50 l40 5 3 68 c3 80 -6 97 -54 97 -34 0 -34 1 -34 45 0 36 -4 47
-25 61 -20 13 -25 24 -25 61 0 46 -25 107 -57 135 -50 46 -131 59 -193 32z
m139 -33 c44 -31 64 -68 69 -126 3 -33 0 -55 -5 -55 -6 0 -13 23 -15 50 -11
114 -128 156 -215 77 -28 -26 -36 -42 -40 -80 -3 -26 -10 -47 -16 -47 -16 0 0
98 22 133 44 71 136 93 200 48z m-17 -52 c23 -12 48 -66 48 -104 l0 -25 -100
0 -100 0 0 25 c0 36 25 91 47 104 24 14 79 14 105 0z m156 -206 l3 -43 -210 0
-211 0 0 38 c0 21 3 42 7 46 4 3 97 5 207 4 l201 -3 3 -42z m72 -113 l0 -40
-45 0 c-25 0 -45 -4 -45 -10 0 -5 20 -10 45 -10 25 0 45 -5 45 -10 0 -7 -98
-9 -287 -8 l-288 3 -3 44 c-6 76 -24 71 293 71 l285 0 0 -40z m-70 -144 c0
-31 -5 -46 -16 -50 -20 -8 -368 -8 -388 0 -11 4 -16 19 -16 50 l0 44 210 0
210 0 0 -44z"/>
<path d="M130 335 c0 -14 5 -25 10 -25 6 0 10 7 10 15 0 8 7 15 15 15 8 0 15
5 15 10 0 6 -11 10 -25 10 -20 0 -25 -5 -25 -25z"/>
<path d="M76 243 c-4 -5 -13 -8 -18 -8 -6 0 -13 -6 -15 -12 -3 -7 1 -13 7 -13
10 0 9 -4 0 -15 -17 -21 -7 -29 35 -29 42 0 52 8 35 29 -8 10 -9 15 -1 15 6 0
11 7 11 16 0 10 -6 14 -14 11 -7 -3 -18 -1 -23 4 -5 5 -13 6 -17 2z"/>
<path d="M190 240 c0 -5 -6 -7 -14 -4 -11 4 -14 -3 -13 -30 1 -38 16 -47 61
-39 27 6 34 17 16 28 -8 5 -7 11 1 21 6 8 9 15 5 15 -3 1 -10 2 -15 3 -5 0
-13 4 -17 9 -10 10 -24 9 -24 -3z"/>
<path d="M310 240 c0 -5 -6 -7 -14 -4 -17 7 -31 -12 -16 -21 8 -5 7 -11 -1
-21 -9 -11 -6 -16 14 -23 36 -14 70 -3 64 20 -3 11 -1 22 4 25 14 8 -1 26 -17
20 -8 -3 -14 -1 -14 4 0 6 -4 10 -10 10 -5 0 -10 -4 -10 -10z"/>
<path d="M426 243 c-4 -5 -12 -9 -17 -9 -5 -1 -12 -2 -15 -3 -4 0 -1 -7 5 -15
8 -10 9 -16 1 -21 -18 -11 -11 -22 16 -28 45 -8 60 1 61 39 1 27 -2 34 -13 30
-8 -3 -14 -1 -14 4 0 12 -14 13 -24 3z"/>
</g>
</svg>
